<svg width="1600" height="703" viewBox="0 0 1600 703" fill="none" xmlns="http://www.w3.org/2000/svg">
<mask id="mask0_1_489" style="mask-type:alpha" maskUnits="userSpaceOnUse" x="0" y="-96" width="1600" height="799">
<path d="M0 -95.0001H1600V492L0 703V-95.0001Z" fill="#172755"/>
</mask>
<g mask="url(#mask0_1_489)">
<g opacity="0.07">
<path d="M1742.57 1099.3C1905.99 938.688 1990.02 702.869 1946.91 460.226C1877.45 69.2563 1504.2 -191.377 1113.23 -121.914C1056.35 -111.808 1002.22 -95.2719 951.477 -73.1871L1376.02 223.261C1416.72 251.679 1426.67 307.707 1398.26 348.404L1158.64 691.56L1742.57 1099.3Z" fill="#8794BA"/>
<path d="M1591.37 1212.96L982.044 787.482C941.347 759.064 931.393 703.036 959.81 662.339L1199.43 319.184L784.007 29.1085C589.083 188.663 483.89 446.129 531.086 711.774C600.549 1102.74 973.804 1363.38 1364.77 1293.91C1446.63 1279.37 1522.78 1251.51 1591.37 1212.96Z" fill="#8794BA"/>
</g>
</g>
</svg>
