<svg width="1600" height="1233" viewBox="0 0 1600 1233" fill="none" xmlns="http://www.w3.org/2000/svg">
<path d="M1600 271L0.000488281 271L0.000493527 211L1600 0.00012207L1600 271Z" fill="#EF2A82"/>
<path d="M1600 1225L0.000244141 1225L0.000575442 227.999L1600 16.9989L1600 1225Z" fill="#172755"/>
<g opacity="0.07">
<path d="M2585.02 1025.13C2521.05 711.301 2308.49 433.338 1991.18 299.257C1479.91 83.2123 890.301 322.543 674.256 833.817C642.825 908.199 621.033 984.24 608.313 1060.55L1278.94 788.328C1343.23 762.234 1416.5 793.194 1442.59 857.481L1662.62 1399.54L2585.02 1025.13Z" fill="#8794BA"/>
<path d="M2603.24 1288.89L1640.72 1679.59C1576.44 1705.69 1503.17 1674.73 1477.07 1610.44L1257.04 1068.38L600.828 1334.75C639.589 1684.7 861.431 2003.95 1208.82 2150.74C1720.09 2366.79 2309.7 2127.46 2525.74 1616.18C2570.98 1509.14 2596.25 1398.66 2603.24 1288.89Z" fill="#8794BA"/>
</g>
</svg>
