<svg width="40" height="40" viewBox="0 0 40 40" fill="none" xmlns="http://www.w3.org/2000/svg">
<path d="M40 19.0159C39.9919 22.4629 39.2275 25.504 37.6825 28.33C36.2269 30.9969 34.2184 33.218 31.6894 34.9693C29.4694 36.5058 27.0381 37.5566 24.379 38.0979C21.4353 38.695 18.4917 38.6313 15.5724 37.9467C14.0274 37.5805 12.5474 37.0232 11.1569 36.2829C10.921 36.1555 10.7178 36.1475 10.4657 36.2271C7.40002 37.1904 4.33437 38.1457 1.26872 39.101C0.919053 39.2124 0.577521 39.3159 0.227858 39.4433C-0.0160927 39.5309 -0.032356 39.4433 0.0326976 39.2443C0.390492 38.2173 0.740155 37.1904 1.09795 36.1555C1.86233 33.9185 2.62671 31.6815 3.40735 29.4525C3.51306 29.158 3.35856 28.9669 3.23659 28.7599C2.27705 27.128 1.59398 25.3925 1.17114 23.5615C0.252253 19.613 0.577521 15.744 2.12254 11.9945C3.01703 9.82917 4.29371 7.88674 5.92818 6.16721C8.00989 3.97003 10.4738 2.35399 13.3199 1.27132C15.979 0.260304 18.7275 -0.129774 21.5573 0.0374025C25.4361 0.268265 28.9653 1.52607 32.0635 3.81878C36.0724 6.78019 38.5932 10.673 39.6015 15.5052C39.8699 16.7391 39.9675 17.989 40 19.0159ZM20.1993 3.26152C19.4431 3.22968 18.5567 3.31725 17.6704 3.44462C17.3207 3.49238 16.9792 3.56403 16.6376 3.6516C11.352 4.96513 7.55452 8.05391 5.3183 12.918C4.02536 15.7281 3.6757 18.6975 4.1636 21.7385C4.54579 24.1427 5.45654 26.3558 6.87959 28.3539C7.03409 28.5768 7.05849 28.7679 6.96904 29.0147C6.36729 30.7421 5.78181 32.4776 5.18819 34.2131C5.15567 34.3086 5.05809 34.42 5.14754 34.5076C5.23699 34.6031 5.35083 34.4996 5.44841 34.4678C7.22925 33.9105 9.01009 33.3612 10.7747 32.7801C11.1813 32.6448 11.474 32.7085 11.8237 32.9154C15.8163 35.2639 20.0855 35.8848 24.5823 34.7146C27.9976 33.8309 30.8112 32.0079 33.0393 29.3172C35.1942 26.714 36.3977 23.7367 36.6416 20.4091C36.8286 17.8536 36.4221 15.3699 35.3812 12.9976C34.072 10.0123 32.0309 7.62403 29.2743 5.84878C26.5746 4.11332 23.5902 3.22172 20.1993 3.26152Z" fill="url(#paint0_linear_2849_4384)"/>
<path d="M10.49 14.6296C10.5225 12.8384 11.2381 11.3656 12.6368 10.2193C13.0352 9.8929 13.515 9.75757 14.0435 9.84514C14.2712 9.87698 14.507 9.90883 14.7266 9.88494C15.2796 9.84514 15.5967 10.1476 15.7675 10.5935C16.2879 11.9309 16.7921 13.2762 17.3044 14.6136C17.4019 14.8684 17.3775 15.0993 17.2556 15.3381C16.9384 15.9829 16.4343 16.4844 15.9301 16.986C15.491 17.4238 15.4666 17.5671 15.7675 18.1005C17.223 20.6798 19.2316 22.6859 22.0126 23.9039C22.1508 23.9596 22.2728 24.0551 22.4029 24.1109C22.7526 24.278 23.0697 24.2621 23.3625 23.9676C23.9317 23.4024 24.4602 22.7973 24.9725 22.1764C25.371 21.6908 25.558 21.6191 26.1191 21.8659C27.4852 22.4869 28.7863 23.2113 30.1118 23.9118C30.5509 24.1427 30.5997 24.4611 30.5346 25.0423C30.2663 27.4066 28.4204 28.4813 26.3143 28.8237C25.6068 28.9351 24.94 28.8714 24.2732 28.6644C22.3216 28.0594 20.4025 27.3589 18.6786 26.2603C17.0685 25.2333 15.6861 23.9517 14.4745 22.4948C13.2954 21.0698 12.2464 19.5653 11.3763 17.9333C10.8884 17.0019 10.49 15.553 10.49 14.6296Z" fill="url(#paint1_linear_2849_4384)"/>
<defs>
<linearGradient id="paint0_linear_2849_4384" x1="20" y1="0" x2="20" y2="39.4772" gradientUnits="userSpaceOnUse">
<stop stop-color="#EF2A82"/>
<stop offset="1" stop-color="#7B61FF"/>
</linearGradient>
<linearGradient id="paint1_linear_2849_4384" x1="20.524" y1="9.81909" x2="20.524" y2="28.8779" gradientUnits="userSpaceOnUse">
<stop stop-color="#EF2A82"/>
<stop offset="1" stop-color="#7B61FF"/>
</linearGradient>
</defs>
</svg>
