<svg xmlns="http://www.w3.org/2000/svg" version="1.0" width="512.000000pt" height="512.000000pt" viewBox="0 0 512.000000 512.000000" preserveAspectRatio="xMidYMid meet">

<g transform="translate(0.000000,512.000000) scale(0.100000,-0.100000)" fill="#1f2f5c" stroke="none">
<path d="M190 5111 c-69 -22 -130 -73 -166 -141 -18 -34 -19 -85 -19 -1300 0 -1231 1 -1266 19 -1304 25 -50 72 -97 122 -122 34 -17 65 -19 247 -22 l207 -3 0 -1110 0 -1109 1960 0 1960 0 0 595 0 595 -85 0 -85 0 0 -510 0 -510 -1790 0 -1790 0 0 1025 0 1025 703 0 c781 0 761 -2 831 66 20 19 46 54 59 77 l22 42 3 1103 2 1102 470 0 470 0 0 -515 0 -515 510 0 510 0 0 -595 0 -595 85 0 85 0 0 657 0 658 -537 537 -538 538 -526 0 -526 0 -5 78 c-7 113 -53 188 -148 238 -33 18 -81 19 -1030 21 -547 1 -1006 -2 -1020 -6z m2001 -190 l29 -29 0 -1222 0 -1222 -29 -29 -29 -29 -967 0 -967 0 -29 29 -29 29 0 1222 0 1222 29 29 29 29 967 0 967 0 29 -29z m2029 -1163 c0 -5 -162 -8 -360 -8 l-360 0 0 367 0 368 360 -360 c198 -198 360 -363 360 -367z" fill="#1f2f5c"/>
<path d="M260 4565 l0 -295 935 0 935 0 0 295 0 295 -935 0 -935 0 0 -295z m1700 0 l0 -125 -765 0 -765 0 0 125 0 125 765 0 765 0 0 -125z" fill="#1f2f5c"/>
<path d="M445 4166 c-37 -17 -80 -62 -94 -99 -14 -36 -14 -230 -1 -277 11 -41 61 -94 103 -109 16 -6 82 -11 148 -11 136 0 179 14 221 72 22 31 23 42 23 184 0 148 0 151 -27 186 -44 57 -78 68 -220 68 -80 -1 -133 -5 -153 -14z m235 -241 l0 -85 -85 0 -85 0 0 85 0 85 85 0 85 0 0 -85z" fill="#1f2f5c"/>
<path d="M1025 4157 c-22 -13 -49 -40 -62 -62 -20 -36 -23 -54 -23 -169 0 -120 2 -132 25 -172 40 -67 85 -84 232 -84 146 0 192 18 230 90 20 38 23 57 23 165 0 108 -3 127 -23 166 -39 74 -77 89 -232 89 -116 0 -134 -3 -170 -23z m255 -232 l0 -85 -85 0 -85 0 0 85 0 85 85 0 85 0 0 -85z" fill="#1f2f5c"/>
<path d="M1635 4164 c-85 -44 -97 -76 -93 -250 3 -127 5 -142 26 -172 42 -58 85 -72 222 -72 80 0 131 5 153 14 41 17 81 62 96 105 14 42 15 223 1 271 -11 41 -61 94 -103 109 -46 18 -266 14 -302 -5z m245 -239 l0 -85 -85 0 -85 0 0 85 0 85 85 0 85 0 0 -85z" fill="#1f2f5c"/>
<path d="M431 3563 c-18 -9 -45 -34 -60 -56 -24 -37 -26 -51 -29 -156 -4 -127 5 -174 44 -220 42 -50 95 -64 231 -60 136 5 173 20 211 87 20 36 22 54 22 174 0 124 -2 138 -23 169 -12 18 -38 44 -56 56 -31 21 -45 23 -170 23 -106 0 -143 -4 -170 -17z m249 -238 l0 -85 -85 0 -85 0 0 85 0 85 85 0 85 0 0 -85z" fill="#1f2f5c"/>
<path d="M1024 3561 c-17 -10 -42 -34 -55 -53 -21 -29 -24 -46 -27 -152 -5 -150 1 -178 45 -226 44 -49 81 -60 209 -60 113 0 156 11 198 49 47 42 56 78 56 211 0 137 -14 180 -72 222 -30 21 -45 23 -178 26 -129 2 -148 1 -176 -17z m256 -236 l0 -85 -85 0 -85 0 0 85 0 85 85 0 85 0 0 -85z" fill="#1f2f5c"/>
<path d="M1619 3557 c-18 -12 -44 -38 -56 -56 -21 -31 -23 -45 -23 -168 0 -157 10 -190 73 -231 37 -25 51 -27 155 -31 127 -4 175 6 221 45 50 42 64 95 60 231 -4 109 -6 123 -31 160 -41 63 -74 73 -231 73 -123 0 -137 -2 -168 -23z m261 -232 l0 -85 -85 0 -85 0 0 85 0 85 85 0 85 0 0 -85z" fill="#1f2f5c"/>
<path d="M457 2976 c-91 -33 -117 -87 -117 -246 0 -138 16 -184 78 -225 31 -21 56 -27 124 -32 160 -11 235 12 285 86 21 31 23 45 23 168 0 145 -6 167 -57 214 -15 15 -43 31 -62 38 -47 15 -227 13 -274 -3z m223 -241 l0 -85 -85 0 -85 0 0 78 c0 43 3 82 7 85 3 4 42 7 85 7 l78 0 0 -85z" fill="#1f2f5c"/>
<path d="M1057 2975 c-93 -33 -117 -82 -117 -244 0 -126 8 -161 43 -199 46 -50 73 -57 212 -57 147 0 174 9 222 72 27 35 28 42 31 162 2 73 -1 141 -7 162 -14 45 -67 94 -118 108 -54 15 -220 13 -266 -4z m223 -240 l0 -85 -85 0 -85 0 0 85 0 85 85 0 85 0 0 -85z" fill="#1f2f5c"/>
<path d="M1655 2979 c-38 -12 -68 -37 -94 -80 -18 -30 -21 -50 -21 -170 0 -125 2 -139 23 -170 50 -74 125 -97 285 -86 68 5 93 11 124 32 62 41 78 87 78 225 0 159 -26 213 -117 246 -43 15 -231 17 -278 3z m223 -246 l3 -83 -86 0 -85 0 0 85 0 86 83 -3 82 -3 3 -82z" fill="#1f2f5c"/>
<path d="M2730 3245 l0 -85 85 0 85 0 0 85 0 85 -85 0 -85 0 0 -85z" fill="#1f2f5c"/>
<path d="M3070 3245 l0 -85 515 0 516 0 -3 83 -3 82 -512 3 -513 2 0 -85z" fill="#1f2f5c"/>
<path d="M2730 2905 l0 -85 85 0 85 0 0 85 0 85 -85 0 -85 0 0 -85z" fill="#1f2f5c"/>
<path d="M3070 2905 l0 -85 515 0 516 0 -3 83 -3 82 -512 3 -513 2 0 -85z" fill="#1f2f5c"/>
<path d="M2734 2637 c-3 -8 -4 -47 -2 -88 l3 -74 83 -3 82 -3 0 91 0 90 -80 0 c-58 0 -82 -4 -86 -13z" fill="#1f2f5c"/>
<path d="M3074 2637 c-3 -8 -4 -47 -2 -88 l3 -74 510 0 510 0 0 85 0 85 -508 3 c-419 2 -508 0 -513 -11z" fill="#1f2f5c"/>
<path d="M4770 2454 c-38 -14 -156 -127 -805 -775 l-760 -759 -107 -233 c-65 -140 -108 -247 -108 -266 0 -18 8 -39 20 -51 41 -41 60 -38 253 50 100 46 211 98 247 116 58 29 144 112 822 791 734 735 757 760 772 812 20 68 20 84 0 150 -18 61 -70 123 -128 153 -53 27 -147 33 -206 12z m146 -178 c44 -37 39 -86 -14 -139 l-42 -42 -60 60 -61 60 45 43 c53 50 90 55 132 18z m-233 -244 l57 -58 -30 -29 -30 -29 -60 59 -60 59 27 28 c15 15 29 28 33 28 3 0 31 -26 63 -58z m-180 -180 l57 -57 -548 -547 -547 -547 -107 -50 c-60 -27 -108 -48 -108 -45 0 2 21 50 47 106 l46 103 546 548 c300 301 548 547 551 547 3 0 31 -26 63 -58z" fill="#1f2f5c"/>
<path d="M2730 2215 l0 -85 85 0 85 0 0 85 0 85 -85 0 -85 0 0 -85z" fill="#1f2f5c"/>
<path d="M3070 2215 l0 -85 513 2 512 3 3 83 3 82 -516 0 -515 0 0 -85z" fill="#1f2f5c"/>
<path d="M1845 2041 c-118 -20 -215 -54 -320 -115 -97 -57 -247 -209 -302 -306 -188 -336 -138 -736 125 -1012 277 -290 695 -349 1046 -148 259 148 419 429 418 735 0 462 -355 830 -817 850 -55 2 -122 0 -150 -4z m290 -186 c239 -62 435 -262 490 -500 85 -364 -133 -725 -495 -822 -88 -23 -253 -23 -340 1 -220 60 -405 235 -476 452 -26 80 -29 102 -28 214 0 110 3 135 28 205 84 245 296 425 546 465 71 11 199 4 275 -15z" fill="#1f2f5c"/>
<path d="M1880 1660 c0 -41 -3 -50 -17 -50 -31 0 -137 -56 -171 -90 -50 -49 -66 -88 -66 -155 0 -140 118 -235 315 -254 103 -10 120 -15 162 -43 74 -52 -11 -127 -143 -127 -60 -1 -123 23 -154 58 -17 18 -30 21 -103 21 l-85 0 7 -32 c10 -47 30 -81 67 -118 34 -34 140 -90 171 -90 14 0 17 -9 17 -50 l0 -50 85 0 85 0 0 50 c0 28 4 50 10 50 29 0 122 45 160 77 140 120 90 323 -98 393 -30 12 -97 25 -148 30 -95 9 -123 18 -161 53 -30 27 -29 40 7 71 76 63 227 61 292 -5 28 -27 35 -29 109 -29 75 0 79 1 79 23 -1 40 -36 102 -80 140 -38 32 -131 77 -160 77 -6 0 -10 23 -10 50 l0 50 -85 0 -85 0 0 -50z" fill="#1f2f5c"/>
</g>
</svg>