<svg xmlns="http://www.w3.org/2000/svg" version="1.0" width="512.000000pt" height="512.000000pt" viewBox="0 0 512.000000 512.000000" preserveAspectRatio="xMidYMid meet">

<g transform="translate(0.000000,512.000000) scale(0.100000,-0.100000)" fill="#ef2a82" stroke="none">
<path d="M786 5029 c-62 -15 -153 -68 -197 -116 -22 -24 -55 -74 -72 -111 l-32 -67 -3 -247 -4 -248 321 0 321 0 0 -79 0 -79 -247 -4 -248 -3 -67 -32 c-93 -44 -151 -100 -196 -191 l-37 -76 0 -1296 0 -1296 37 -76 c45 -91 103 -147 196 -191 l67 -32 622 -3 623 -3 -80 -159 -80 -160 -151 0 c-186 0 -218 -8 -284 -75 -71 -70 -91 -145 -63 -239 16 -55 99 -138 154 -154 60 -17 2328 -17 2388 0 55 16 138 99 154 154 26 89 9 163 -55 234 -62 69 -101 80 -290 80 l-153 0 -80 160 -80 159 623 3 623 3 76 37 c91 45 147 103 191 196 l32 67 0 1295 0 1295 -32 67 c-44 93 -100 151 -191 196 l-76 37 -247 3 -248 4 -3 326 -3 327 -32 67 c-44 93 -100 151 -191 196 l-76 37 -1435 2 c-845 1 -1452 -3 -1475 -8z m168 -161 c55 -16 138 -99 154 -154 7 -24 12 -100 12 -178 l0 -136 -240 0 -240 0 0 136 c0 170 9 204 75 269 70 71 145 90 239 63z m2720 0 c58 -17 138 -100 154 -158 10 -34 12 -253 10 -923 l-3 -877 -44 56 c-24 31 -80 85 -125 120 -354 280 -849 252 -1166 -66 -264 -263 -333 -661 -174 -996 45 -96 140 -221 212 -281 31 -26 61 -51 67 -55 5 -4 -291 -8 -658 -8 l-667 0 -2 1528 -3 1528 -36 72 -35 72 1214 0 c924 0 1225 -3 1256 -12z m-2554 -1027 l0 -80 -189 -3 c-207 -3 -216 -6 -265 -72 -21 -27 -21 -33 -21 -1046 0 -1013 0 -1019 21 -1046 11 -15 33 -37 48 -48 l27 -21 1819 0 1819 0 27 21 c15 11 37 33 48 48 21 27 21 33 21 1046 0 1013 0 1019 -21 1046 -49 66 -58 69 -265 72 l-189 3 0 80 0 79 216 0 c141 0 231 -4 258 -12 55 -16 138 -99 154 -154 17 -60 17 -2488 0 -2548 -16 -55 -99 -138 -154 -154 -23 -7 -69 -12 -102 -12 l-61 0 6 50 c8 71 -12 132 -64 190 -68 76 -88 80 -411 80 -186 0 -288 -4 -316 -12 -26 -8 -60 -31 -92 -63 -59 -59 -80 -117 -71 -195 l6 -50 -1341 0 c-1023 0 -1350 3 -1382 12 -55 16 -138 99 -154 154 -17 60 -17 2488 0 2548 15 51 99 137 148 153 21 6 126 11 258 12 l222 1 0 -79z m0 -1201 l0 -960 -160 0 -160 0 0 960 0 960 160 0 160 0 0 -960z m3200 0 l0 -960 -160 0 -160 0 0 960 0 960 160 0 160 0 0 -960z m-985 446 c113 -36 198 -89 290 -181 91 -91 144 -175 182 -290 23 -71 26 -96 26 -215 0 -119 -3 -144 -26 -215 -38 -115 -91 -199 -182 -290 -91 -91 -175 -144 -290 -182 -71 -23 -96 -26 -215 -26 -119 0 -144 3 -215 26 -115 38 -199 91 -290 182 -91 91 -144 175 -182 290 -23 71 -26 96 -26 215 0 119 3 144 26 215 38 115 91 199 182 290 112 112 235 179 379 205 89 16 251 5 341 -24z m502 -1403 c-3 -2 -50 -2 -105 -1 l-102 3 59 47 c33 26 79 72 103 103 l43 55 3 -101 c1 -56 1 -103 -1 -106z m298 -508 c16 -15 25 -36 25 -55 0 -19 -9 -40 -25 -55 l-24 -25 -271 0 -271 0 -24 25 c-16 15 -25 36 -25 55 0 19 9 40 25 55 l24 25 271 0 271 0 24 -25z m-985 -455 l80 -160 -670 0 -670 0 80 160 80 160 510 0 510 0 80 -160z m585 -345 c16 -15 25 -36 25 -55 0 -19 -9 -40 -25 -55 l-24 -25 -1151 0 -1151 0 -24 25 c-16 15 -25 36 -25 55 0 19 9 40 25 55 l24 25 1151 0 1151 0 24 -25z" fill="#ef2a82"/>
<path d="M1440 4640 l0 -80 80 0 80 0 0 80 0 80 -80 0 -80 0 0 -80z" fill="#ef2a82"/>
<path d="M3200 4160 l0 -560 -80 0 -80 0 0 400 0 400 -240 0 -240 0 0 -400 0 -400 -80 0 -80 0 0 240 0 240 -240 0 -240 0 0 -320 0 -320 880 0 880 0 0 640 0 640 -240 0 -240 0 0 -560z m320 -80 l0 -480 -80 0 -80 0 0 480 0 480 80 0 80 0 0 -480z m-640 -160 l0 -320 -80 0 -80 0 0 320 0 320 80 0 80 0 0 -320z m-640 -160 l0 -160 -80 0 -80 0 0 160 0 160 80 0 80 0 0 -160z" fill="#ef2a82"/>
<path d="M1440 4320 l0 -80 80 0 80 0 0 80 0 80 -80 0 -80 0 0 -80z" fill="#ef2a82"/>
<path d="M1440 4000 l0 -80 80 0 80 0 0 80 0 80 -80 0 -80 0 0 -80z" fill="#ef2a82"/>
<path d="M1440 3200 l0 -80 320 0 320 0 0 80 0 80 -320 0 -320 0 0 -80z" fill="#ef2a82"/>
<path d="M1440 2880 l0 -80 320 0 320 0 0 80 0 80 -320 0 -320 0 0 -80z" fill="#ef2a82"/>
<path d="M1440 2560 l0 -80 320 0 320 0 0 80 0 80 -320 0 -320 0 0 -80z" fill="#ef2a82"/>
<path d="M1440 2240 l0 -80 320 0 320 0 0 80 0 80 -320 0 -320 0 0 -80z" fill="#ef2a82"/>
<path d="M1440 1920 l0 -80 320 0 320 0 0 80 0 80 -320 0 -320 0 0 -80z" fill="#ef2a82"/>
<path d="M800 1280 l0 -80 80 0 80 0 0 80 0 80 -80 0 -80 0 0 -80z" fill="#ef2a82"/>
<path d="M1120 1280 l0 -80 80 0 80 0 0 80 0 80 -80 0 -80 0 0 -80z" fill="#ef2a82"/>
<path d="M1440 1280 l0 -80 80 0 80 0 0 80 0 80 -80 0 -80 0 0 -80z" fill="#ef2a82"/>
<path d="M3040 2880 l0 -80 -80 0 -80 0 0 -136 c0 -170 9 -204 75 -269 51 -52 102 -75 164 -75 52 0 81 -37 81 -105 l0 -55 -55 0 c-46 0 -60 4 -80 25 -14 13 -25 31 -25 40 0 12 -15 15 -80 15 -89 0 -90 0 -68 -72 14 -48 76 -121 118 -138 l30 -12 0 -89 0 -89 80 0 80 0 0 80 0 80 80 0 80 0 0 136 c0 170 -9 204 -75 269 -51 52 -102 75 -164 75 -52 0 -81 37 -81 105 l0 55 55 0 c46 0 60 -4 80 -25 14 -13 25 -31 25 -40 0 -12 15 -15 80 -15 89 0 90 0 68 72 -14 48 -76 121 -118 138 l-30 12 0 89 0 89 -80 0 -80 0 0 -80z" fill="#ef2a82"/>
<path d="M2585 2455 c-50 -49 -15 -135 55 -135 41 0 80 39 80 80 0 41 -39 80 -80 80 -19 0 -40 -9 -55 -25z" fill="#ef2a82"/>
<path d="M3545 2455 c-50 -49 -15 -135 55 -135 41 0 80 39 80 80 0 41 -39 80 -80 80 -19 0 -40 -9 -55 -25z" fill="#ef2a82"/>
</g>
</svg>