<svg xmlns="http://www.w3.org/2000/svg" version="1.0" width="512.000000pt" height="512.000000pt" viewBox="0 0 512.000000 512.000000" preserveAspectRatio="xMidYMid meet">

<g transform="translate(0.000000,512.000000) scale(0.100000,-0.100000)" fill="#ef2a82" stroke="none">
<path d="M1875 5095 l-25 -24 0 -566 0 -566 25 -24 c13 -14 36 -25 50 -25 14 0 37 11 50 25 l25 24 0 516 0 515 853 -2 852 -3 3 -462 2 -463 -448 0 c-496 0 -508 -1 -607 -65 -54 -34 -111 -97 -139 -152 l-17 -33 -874 0 -874 0 -20 -26 c-28 -35 -26 -69 4 -99 l24 -25 858 0 c574 0 871 -4 896 -11 21 -6 56 -26 77 -45 76 -69 71 65 68 -1706 l-3 -1586 -30 -44 c-17 -23 -51 -54 -75 -68 l-45 -25 -1095 0 c-1208 0 -1118 -5 -1184 61 -66 67 -61 -77 -61 1680 l0 1591 30 48 c22 36 45 57 84 77 49 26 62 28 163 28 60 0 117 4 127 10 28 14 44 61 32 93 -17 43 -41 49 -185 45 -116 -3 -137 -6 -188 -30 -109 -51 -183 -143 -208 -258 -8 -41 -10 -463 -8 -1635 l3 -1580 22 -53 c44 -108 136 -188 249 -217 54 -14 192 -15 1155 -13 l1094 3 62 29 c73 33 147 107 184 181 l24 50 3 1498 2 1497 145 0 145 0 2 -1451 3 -1451 28 -24 28 -24 956 2 955 3 19 24 c18 22 19 48 19 641 l0 619 -27 21 c-20 16 -36 20 -58 16 -63 -13 -60 18 -63 -606 l-2 -570 -850 0 -850 0 0 1593 c0 1046 -4 1614 -10 1656 -6 35 -23 86 -38 115 -15 28 -28 54 -30 59 -2 4 351 7 785 7 877 0 847 2 917 -66 77 -74 70 13 76 -1064 3 -531 9 -972 13 -981 8 -17 49 -39 71 -39 7 0 25 9 40 21 l26 20 0 967 c0 1059 2 1015 -60 1111 -52 82 -126 137 -220 165 -46 14 -123 16 -512 16 l-458 0 0 505 c0 534 -1 552 -45 569 -9 3 -444 6 -966 6 l-950 0 -24 -25z m1068 -1219 c59 -22 107 -64 133 -120 22 -46 24 -64 24 -199 l0 -148 -142 3 -143 3 -7 60 c-10 79 -49 155 -110 215 -58 57 -58 68 3 129 64 64 159 86 242 57z" fill="#ef2a82"/>
<path d="M2204 4763 c-55 -11 -76 -86 -35 -126 20 -20 31 -22 152 -22 l131 0 24 28 c30 35 30 59 0 94 -24 27 -27 28 -138 30 -62 0 -123 -1 -134 -4z" fill="#ef2a82"/>
<path d="M2660 4757 c-13 -7 -31 -24 -39 -38 -20 -37 0 -84 41 -98 20 -7 172 -11 425 -11 430 0 456 3 469 54 11 44 -4 76 -41 92 -47 19 -816 21 -855 1z" fill="#ef2a82"/>
<path d="M2195 4330 c-49 -19 -64 -82 -30 -120 16 -18 31 -20 156 -20 137 0 138 0 158 26 12 15 21 33 21 40 0 29 -25 64 -53 74 -35 12 -223 13 -252 0z" fill="#ef2a82"/>
<path d="M2659 4329 c-25 -9 -49 -45 -49 -73 0 -7 9 -25 21 -40 l20 -26 435 0 c421 0 435 1 454 20 25 25 26 71 1 101 l-19 24 -419 2 c-251 1 -428 -2 -444 -8z" fill="#ef2a82"/>
<path d="M3449 3649 c-25 -9 -49 -45 -49 -74 0 -8 11 -27 24 -42 l24 -28 130 0 c151 0 172 9 172 75 0 64 -23 75 -159 77 -64 1 -128 -2 -142 -8z" fill="#ef2a82"/>
<path d="M3913 3645 c-35 -15 -49 -48 -39 -91 14 -53 37 -55 488 -52 l410 3 24 28 c39 46 27 95 -30 117 -17 6 -173 10 -424 10 -317 -1 -403 -4 -429 -15z" fill="#ef2a82"/>
<path d="M343 3466 l-28 -24 0 -406 0 -405 23 -23 23 -23 1027 -3 c690 -2 1039 0 1063 7 23 7 40 20 47 36 17 38 16 804 -1 826 -30 39 -23 39 -1091 39 l-1035 0 -28 -24z m2015 -428 l2 -298 -945 0 -945 0 0 300 0 300 943 -2 942 -3 3 -297z" fill="#ef2a82"/>
<path d="M2010 2973 c-51 -19 -68 -85 -30 -123 18 -18 33 -20 133 -20 106 0 115 2 135 23 36 38 28 88 -19 112 -28 15 -185 20 -219 8z" fill="#ef2a82"/>
<path d="M3444 3218 c-22 -10 -44 -47 -44 -72 0 -7 9 -25 21 -40 20 -26 22 -26 155 -26 121 0 136 2 154 20 30 30 27 83 -6 109 -24 19 -40 21 -143 20 -64 0 -126 -5 -137 -11z" fill="#ef2a82"/>
<path d="M3913 3220 c-44 -18 -57 -86 -23 -120 19 -19 33 -20 454 -20 l435 0 20 26 c34 43 26 86 -20 109 -23 13 -97 15 -436 14 -224 0 -418 -4 -430 -9z" fill="#ef2a82"/>
<path d="M3431 2783 c-11 -10 -24 -32 -27 -50 -5 -26 -1 -37 19 -57 25 -25 30 -26 151 -26 68 0 132 3 141 6 26 10 44 62 33 94 -14 41 -47 50 -177 50 -98 0 -122 -3 -140 -17z" fill="#ef2a82"/>
<path d="M3896 2779 c-34 -27 -36 -77 -3 -107 23 -22 26 -22 451 -22 l427 0 24 25 c14 13 25 36 25 50 0 14 -11 37 -25 50 l-24 25 -424 0 c-414 0 -425 0 -451 -21z" fill="#ef2a82"/>
<path d="M374 2413 c-12 -2 -30 -13 -40 -25 -18 -19 -19 -61 -19 -1035 l0 -1015 24 -19 c23 -18 54 -19 1076 -19 l1054 0 20 26 c21 27 21 30 21 1030 l0 1003 -24 28 -24 28 -1034 1 c-568 1 -1043 -1 -1054 -3z m606 -413 l0 -260 -255 0 -255 0 0 260 0 260 255 0 255 0 0 -260z m710 0 l0 -260 -277 2 -278 3 -3 258 -2 257 280 0 280 0 0 -260z m670 0 l0 -260 -257 2 -258 3 -3 258 -2 257 260 0 260 0 0 -260z m-1380 -645 l0 -235 -255 0 -255 0 0 235 0 235 255 0 255 0 0 -235z m710 0 l0 -235 -280 0 -280 0 0 235 0 235 280 0 280 0 0 -235z m670 0 l0 -235 -260 0 -260 0 0 235 0 235 260 0 260 0 0 -235z m-1380 -645 l0 -260 -255 0 -255 0 0 260 0 260 255 0 255 0 0 -260z m710 0 l0 -260 -280 0 -280 0 0 260 0 260 280 0 280 0 0 -260z m670 0 l0 -260 -260 0 -260 0 0 260 0 260 260 0 260 0 0 -260z" fill="#ef2a82"/>
<path d="M3423 2344 c-20 -20 -24 -31 -19 -57 11 -59 33 -67 175 -67 134 1 152 6 170 51 11 30 -8 83 -34 93 -9 3 -73 6 -141 6 -121 0 -126 -1 -151 -26z" fill="#ef2a82"/>
<path d="M3892 2347 c-31 -33 -29 -80 4 -106 26 -21 37 -21 451 -21 l424 0 24 25 c14 13 25 36 25 50 0 14 -11 37 -25 50 l-24 25 -429 0 -429 0 -21 -23z" fill="#ef2a82"/>
<path d="M3421 1914 c-24 -30 -26 -43 -10 -77 17 -38 51 -47 174 -47 104 0 116 2 139 23 36 32 39 74 6 107 -18 18 -33 20 -154 20 -133 0 -135 0 -155 -26z" fill="#ef2a82"/>
<path d="M3890 1918 c-25 -27 -26 -69 -1 -99 l19 -24 414 -3 c227 -1 423 0 436 3 32 8 62 41 62 69 0 13 -9 35 -21 50 l-20 26 -434 0 c-434 0 -434 0 -455 -22z" fill="#ef2a82"/>
<path d="M4095 1507 c-11 -26 -22 -36 -47 -41 -50 -10 -105 -54 -129 -103 -17 -35 -20 -57 -17 -108 5 -82 38 -126 126 -170 l62 -30 0 -102 c0 -120 -1 -121 -80 -68 -60 40 -93 44 -114 13 -22 -31 -20 -70 6 -103 25 -32 111 -75 150 -75 20 0 32 -8 43 -31 14 -25 21 -30 47 -27 23 2 36 11 48 33 10 19 29 33 51 39 46 14 115 85 128 132 16 58 13 124 -8 170 -21 45 -79 98 -128 116 l-33 12 0 93 c0 102 6 109 60 78 14 -8 33 -14 43 -15 26 0 57 37 57 69 0 39 -36 66 -106 82 -42 10 -57 18 -67 38 -9 19 -21 27 -45 29 -29 3 -34 -1 -47 -31z m-7 -264 l-3 -38 -27 27 c-16 15 -28 38 -28 52 0 15 11 33 28 46 l27 22 3 -36 c2 -20 2 -53 0 -73z m148 -279 c15 -36 8 -70 -20 -93 -14 -12 -16 -6 -16 63 0 83 10 91 36 30z" fill="#ef2a82"/>
</g>
</svg>