<svg xmlns="http://www.w3.org/2000/svg" version="1.0" width="512.000000pt" height="512.000000pt" viewBox="0 0 512.000000 512.000000" preserveAspectRatio="xMidYMid meet">

<g transform="translate(0.000000,512.000000) scale(0.100000,-0.100000)" fill="#ef2a82" stroke="none">
<path d="M3996 5024 c-350 -63 -639 -356 -701 -709 -83 -480 235 -937 710 -1019 l70 -12 3 -327 c2 -273 0 -327 -12 -327 -35 0 -158 -74 -199 -120 l-44 -49 -269 107 -269 108 -7 67 c-14 119 -69 203 -170 258 -58 31 -70 34 -148 33 -69 0 -94 -5 -135 -24 -64 -31 -124 -91 -155 -155 -33 -69 -35 -189 -3 -257 l21 -46 -102 -108 -101 -108 -5 960 -5 960 -37 76 c-45 91 -103 147 -196 191 l-67 32 -896 0 -895 0 -76 -37 c-91 -45 -147 -103 -191 -196 l-32 -67 0 -1455 0 -1455 32 -67 c42 -90 100 -150 186 -193 38 -19 76 -35 83 -35 11 0 14 -19 14 -79 0 -240 92 -464 260 -631 341 -342 883 -346 1234 -9 l71 69 1108 0 1107 0 388 194 c413 207 439 224 461 303 14 48 14 78 0 126 -22 79 -48 96 -461 303 l-388 194 -850 0 -850 0 0 293 1 292 162 167 162 168 60 -21 c106 -37 237 -7 318 75 l36 36 271 -108 271 -108 2 -86 c3 -76 8 -95 40 -161 44 -90 103 -147 195 -190 61 -29 76 -32 162 -32 86 0 101 3 162 32 93 44 151 100 196 191 35 72 37 81 37 171 0 87 -3 102 -32 163 -42 90 -100 150 -186 193 -38 19 -76 35 -83 35 -12 0 -14 55 -12 328 l3 327 30 3 c109 11 257 66 368 138 342 221 487 675 336 1053 -158 395 -564 621 -983 545z m379 -178 c113 -36 198 -89 290 -181 91 -91 144 -175 182 -290 23 -71 26 -96 26 -215 0 -119 -3 -144 -26 -215 -38 -115 -91 -199 -182 -290 -91 -91 -175 -144 -290 -182 -71 -23 -96 -26 -215 -26 -119 0 -144 3 -215 26 -115 38 -199 91 -290 182 -91 91 -144 175 -182 290 -23 71 -26 96 -26 215 0 119 3 144 26 215 38 115 91 199 182 290 112 112 235 179 379 205 89 16 251 5 341 -24z m-2221 -458 c55 -16 138 -99 154 -154 9 -31 12 -288 12 -1054 l0 -1013 -114 -121 c-63 -66 -175 -183 -248 -259 l-133 -139 -40 30 c-65 48 -194 109 -285 134 -69 18 -110 22 -220 22 -147 0 -216 -13 -341 -64 l-68 -28 -25 32 c-43 57 -80 68 -221 64 -134 -3 -153 -10 -199 -72 -18 -23 -21 -45 -24 -151 -4 -141 7 -178 64 -221 l32 -25 -31 -77 c-17 -42 -32 -79 -33 -80 -1 -2 -17 -1 -35 3 -45 10 -131 99 -147 151 -17 60 -17 2808 0 2868 15 51 99 137 148 153 52 16 1698 17 1754 1z m869 -1522 c103 -43 128 -177 48 -257 -112 -113 -296 -12 -267 146 18 94 128 150 219 111z m1211 -398 c86 -26 166 -136 166 -228 0 -124 -116 -240 -240 -240 -124 0 -240 116 -240 240 0 63 23 114 75 165 70 71 145 90 239 63z m-1914 -743 l0 -205 -186 0 c-160 0 -185 2 -182 15 2 12 357 395 365 395 2 0 3 -92 3 -205z m-1600 -63 c0 -24 -118 -142 -142 -142 -16 0 -18 9 -18 80 l0 80 80 0 c71 0 80 -2 80 -18z m775 -16 c113 -36 198 -89 290 -181 91 -91 144 -175 182 -290 23 -71 26 -96 26 -215 0 -119 -3 -144 -26 -215 -38 -115 -91 -199 -182 -290 -91 -91 -175 -144 -290 -182 -71 -23 -96 -26 -215 -26 -119 0 -144 3 -215 26 -114 38 -198 90 -290 182 -91 91 -144 175 -182 290 -23 71 -26 96 -26 215 -1 118 3 145 25 212 40 120 92 204 182 293 114 113 237 179 380 205 89 16 251 5 341 -24z m2465 -361 c-27 -41 -50 -79 -50 -85 0 -6 23 -44 50 -86 l51 -74 -928 2 -928 3 -3 25 c-5 55 -36 168 -58 219 -13 29 -24 57 -24 62 0 5 422 9 970 9 l971 0 -51 -75z m575 -123 c181 -92 334 -175 340 -184 7 -13 7 -23 0 -35 -10 -17 -657 -351 -681 -353 -7 0 -31 29 -54 65 l-43 66 77 114 c42 63 76 119 76 125 0 6 -34 62 -76 125 l-77 114 43 66 c23 36 47 65 54 65 6 -1 159 -76 341 -168z m-575 -357 c-27 -41 -50 -79 -50 -85 0 -6 23 -44 50 -85 l51 -75 -971 0 c-548 0 -970 4 -970 9 0 5 11 33 24 62 26 60 56 172 56 210 0 14 3 29 7 32 3 4 422 7 930 7 l924 0 -51 -75z" fill="#ef2a82"/>
<path d="M4080 4640 c0 -67 -3 -80 -16 -80 -77 0 -189 -88 -212 -166 -28 -94 -8 -169 63 -239 63 -64 100 -75 244 -75 105 0 113 -1 136 -25 16 -15 25 -36 25 -55 0 -19 -9 -40 -25 -55 -23 -24 -29 -25 -160 -25 l-135 0 0 40 0 40 -80 0 -80 0 0 -120 0 -120 120 0 120 0 0 -80 0 -80 80 0 80 0 0 80 c0 67 3 80 16 80 77 0 189 88 212 166 28 94 8 169 -63 239 -63 64 -100 75 -244 75 -105 0 -113 1 -136 25 -16 15 -25 36 -25 55 0 19 9 40 25 55 23 24 29 25 160 25 l135 0 0 -40 0 -40 80 0 80 0 0 120 0 120 -120 0 -120 0 0 80 0 80 -80 0 -80 0 0 -80z" fill="#ef2a82"/>
<path d="M495 4226 c-41 -18 -83 -69 -90 -109 -3 -18 -5 -190 -3 -384 3 -337 4 -353 24 -379 11 -15 33 -37 48 -48 27 -21 35 -21 806 -21 771 0 779 0 806 21 15 11 37 33 48 48 20 27 21 39 21 406 0 367 -1 379 -21 406 -11 15 -33 37 -48 48 -27 21 -37 21 -794 23 -622 2 -773 0 -797 -11z m1505 -466 l0 -320 -720 0 -720 0 0 320 0 320 720 0 720 0 0 -320z" fill="#ef2a82"/>
<path d="M495 3106 c-41 -18 -83 -69 -91 -110 -3 -19 -4 -84 -2 -144 3 -120 12 -142 72 -186 25 -19 42 -21 166 -21 151 0 167 5 214 69 19 25 21 42 21 166 0 124 -2 141 -21 166 -46 62 -65 69 -202 72 -91 1 -136 -2 -157 -12z m225 -226 l0 -80 -80 0 -80 0 0 80 0 80 80 0 80 0 0 -80z" fill="#ef2a82"/>
<path d="M1135 3106 c-41 -18 -83 -69 -91 -110 -3 -19 -4 -84 -2 -144 3 -120 12 -142 72 -186 25 -19 42 -21 166 -21 151 0 167 5 214 69 19 25 21 42 21 166 0 124 -2 141 -21 166 -46 62 -65 69 -202 72 -91 1 -136 -2 -157 -12z m225 -226 l0 -80 -80 0 -80 0 0 80 0 80 80 0 80 0 0 -80z" fill="#ef2a82"/>
<path d="M1775 3106 c-41 -18 -83 -69 -91 -110 -3 -19 -4 -84 -2 -144 3 -120 12 -142 72 -186 25 -19 42 -21 166 -21 151 0 167 5 214 69 19 25 21 42 21 166 0 124 -2 141 -21 166 -46 62 -65 69 -202 72 -91 1 -136 -2 -157 -12z m225 -226 l0 -80 -80 0 -80 0 0 80 0 80 80 0 80 0 0 -80z" fill="#ef2a82"/>
<path d="M495 2466 c-41 -18 -83 -69 -91 -110 -3 -19 -4 -84 -2 -144 3 -120 12 -142 72 -186 25 -19 42 -21 166 -21 151 0 167 5 214 69 19 25 21 42 21 166 0 124 -2 141 -21 166 -46 62 -65 69 -202 72 -91 1 -136 -2 -157 -12z m225 -226 l0 -80 -80 0 -80 0 0 80 0 80 80 0 80 0 0 -80z" fill="#ef2a82"/>
<path d="M1135 2466 c-41 -18 -83 -69 -91 -110 -3 -19 -4 -84 -2 -144 3 -120 12 -142 72 -186 25 -19 42 -21 166 -21 151 0 167 5 214 69 19 25 21 42 21 166 0 124 -2 141 -21 166 -46 62 -65 69 -202 72 -91 1 -136 -2 -157 -12z m225 -226 l0 -80 -80 0 -80 0 0 80 0 80 80 0 80 0 0 -80z" fill="#ef2a82"/>
<path d="M1775 2466 c-41 -18 -83 -69 -91 -110 -3 -19 -4 -84 -2 -144 3 -120 12 -142 72 -186 25 -19 42 -21 166 -21 151 0 167 5 214 69 19 25 21 42 21 166 0 124 -2 141 -21 166 -46 62 -65 69 -202 72 -91 1 -136 -2 -157 -12z m225 -226 l0 -80 -80 0 -80 0 0 80 0 80 80 0 80 0 0 -80z" fill="#ef2a82"/>
<path d="M1200 1440 c0 -67 -3 -80 -16 -80 -47 0 -102 -28 -149 -75 -102 -101 -102 -229 0 -330 63 -64 100 -75 244 -75 105 0 113 -1 136 -25 33 -32 33 -78 0 -110 -23 -24 -29 -25 -160 -25 l-135 0 0 40 0 40 -80 0 -80 0 0 -120 0 -120 120 0 120 0 0 -80 0 -80 80 0 80 0 0 80 c0 67 3 80 16 80 77 0 189 88 212 166 28 94 8 169 -63 239 -63 64 -100 75 -244 75 -105 0 -113 1 -136 25 -16 15 -25 36 -25 55 0 19 9 40 25 55 23 24 29 25 160 25 l135 0 0 -40 0 -40 80 0 80 0 0 120 0 120 -120 0 -120 0 0 80 0 80 -80 0 -80 0 0 -80z" fill="#ef2a82"/>
</g>
</svg>