<svg xmlns="http://www.w3.org/2000/svg" version="1.0" width="920.000000pt" height="920.000000pt" viewBox="0 0 920.000000 920.000000" preserveAspectRatio="xMidYMid meet">

<g transform="translate(0.000000,920.000000) scale(0.100000,-0.100000)" fill="#ef2a82" stroke="none">
<path d="M2385 9049 c-511 -42 -978 -324 -1263 -764 -105 -162 -197 -398 -238 -615 -17 -87 -19 -180 -22 -1160 -2 -730 0 -1103 8 -1187 17 -188 67 -369 149 -545 17 -36 31 -69 31 -73 0 -17 -116 -125 -145 -135 -121 -40 -231 -29 -360 35 -49 24 -108 47 -130 51 -90 14 -192 -40 -240 -128 -29 -51 -30 -57 -29 -178 2 -188 42 -313 145 -452 49 -65 159 -162 222 -194 l28 -15 -43 -50 c-174 -202 -287 -434 -334 -684 -18 -95 -19 -172 -19 -1455 l0 -1355 142 -3 143 -3 0 1325 c0 885 4 1351 11 1403 31 226 154 461 338 643 112 112 211 181 359 255 193 96 241 108 436 113 141 3 168 1 159 -10 -191 -246 -356 -441 -498 -588 -117 -122 -145 -171 -145 -254 0 -149 118 -238 367 -275 39 -6 98 -11 130 -11 32 0 81 -3 109 -6 l51 -6 6 -112 c14 -303 136 -596 336 -809 57 -61 603 -547 742 -662 l49 -40 0 -482 0 -483 140 0 140 0 0 473 1 472 355 310 c402 350 464 409 544 516 151 202 250 494 250 735 l0 81 61 7 c34 3 96 6 138 6 93 1 267 30 341 59 108 41 169 117 170 212 0 91 -53 166 -190 267 -120 88 -253 234 -441 483 l-92 121 94 -4 c107 -6 199 -33 348 -104 304 -143 553 -406 661 -697 58 -155 54 -60 60 -1557 l5 -1375 143 -3 142 -3 0 866 0 865 1655 0 1655 0 0 2754 0 2755 -138 168 c-238 290 -765 933 -822 1004 -30 38 -136 167 -235 288 l-180 221 -2605 -2 c-1433 0 -2645 -4 -2695 -9z m777 -312 c99 -26 241 -91 321 -146 84 -57 160 -136 332 -341 95 -113 188 -219 206 -236 69 -62 172 -104 259 -104 187 0 340 -91 417 -248 l38 -76 3 -338 3 -338 -33 6 c-67 12 -205 57 -263 86 -158 80 -314 222 -435 397 -51 74 -75 100 -110 118 -100 50 -221 18 -301 -80 -139 -170 -270 -265 -453 -327 -136 -47 -232 -60 -502 -70 -242 -9 -294 -14 -489 -46 -316 -51 -683 -183 -930 -334 -36 -22 -68 -40 -70 -40 -3 0 -5 196 -5 435 0 445 6 541 44 685 128 486 516 868 1006 989 142 35 212 40 545 37 308 -3 324 -4 417 -29z m4168 -112 l0 -145 -1510 0 -1510 0 0 -145 c0 -88 -4 -145 -10 -145 -5 0 -27 7 -48 15 -31 13 -72 56 -198 208 -87 106 -196 229 -243 275 l-84 82 1802 0 1801 0 0 -145z m780 -540 c238 -291 449 -549 468 -572 l34 -43 -496 0 -496 0 0 605 0 606 28 -33 c16 -18 224 -271 462 -563z m-780 -110 l0 -215 -285 0 -285 0 0 -1510 0 -1510 430 0 430 0 0 1225 0 1226 143 -3 142 -3 3 -1362 2 -1363 -1083 0 -1084 0 -11 38 c-15 49 -65 108 -111 131 -82 43 -167 36 -261 -19 -70 -41 -142 -60 -229 -60 -115 0 -146 12 -224 89 l-69 67 35 70 c48 95 102 253 129 377 23 102 23 102 26 1248 3 1252 4 1218 -54 1352 -69 154 -188 283 -331 356 -36 18 -43 26 -43 51 l0 30 1365 0 1365 0 0 -215z m0 -1725 l0 -1221 -142 3 -143 3 -3 1218 -2 1217 145 0 145 0 0 -1220z m-3500 908 c51 -75 203 -227 296 -295 166 -122 363 -203 577 -238 l37 -6 0 -104 0 -104 -189 -95 -190 -95 -73 72 c-77 76 -169 132 -263 158 -37 10 -116 14 -300 14 -247 0 -251 -1 -317 -27 -118 -47 -225 -129 -286 -220 l-25 -38 -151 0 -151 1 -35 51 c-61 90 -164 165 -290 211 -77 28 -456 37 -569 13 -148 -31 -278 -117 -356 -235 -22 -33 -44 -61 -48 -61 -5 0 -67 35 -138 78 l-130 77 28 23 c89 72 368 210 550 270 278 93 529 136 863 147 290 9 385 22 550 76 191 63 351 160 485 295 44 45 82 82 85 83 3 0 21 -23 40 -51z m4940 -2483 l0 -2515 -1509 0 -1509 0 -5 378 c-4 404 -8 434 -63 602 -57 170 -167 361 -283 492 l-51 56 56 32 c74 41 192 160 237 237 20 35 48 97 63 138 l27 75 1228 0 1229 0 0 1503 c0 827 3 1507 7 1510 3 4 134 7 290 7 l283 0 0 -2515z m-6343 1477 c212 -112 213 -406 2 -511 l-62 -31 -211 0 c-200 0 -214 1 -261 24 -105 49 -165 143 -165 261 1 107 47 190 139 247 53 33 84 37 306 35 196 -2 213 -4 252 -25z m1580 1 c52 -28 108 -85 136 -138 16 -31 21 -58 21 -120 1 -70 -3 -87 -29 -134 -36 -65 -88 -111 -152 -134 -40 -14 -83 -17 -253 -17 -194 0 -208 1 -255 24 -62 28 -126 97 -150 159 -13 35 -16 65 -13 121 6 86 34 144 98 199 70 60 108 67 345 64 196 -2 213 -3 252 -24z m730 -538 c-4 -369 -8 -408 -59 -558 -135 -399 -457 -714 -852 -831 -172 -52 -158 -51 -876 -51 -671 0 -676 0 -779 23 -381 85 -698 329 -875 672 -55 106 -88 198 -118 325 -19 81 -22 128 -25 462 l-4 372 144 -87 145 -86 16 -78 c38 -176 148 -319 307 -397 116 -57 164 -63 434 -59 217 4 234 6 297 30 92 35 157 79 227 153 70 76 125 182 142 275 6 36 13 75 15 88 4 20 10 22 73 22 l68 0 7 -62 c10 -89 40 -171 90 -247 72 -110 171 -187 297 -233 61 -22 78 -23 324 -23 246 0 264 1 327 23 226 78 389 298 392 528 l1 72 140 70 140 70 3 -62 c2 -33 1 -218 -1 -411z m-3435 -1242 c46 -47 115 -112 155 -143 l72 -57 -77 -6 c-141 -9 -419 -115 -594 -226 l-65 -41 -58 20 c-162 56 -267 175 -297 339 -6 34 -9 64 -5 67 3 3 34 -5 69 -19 167 -67 384 -61 558 16 19 9 62 43 95 76 33 34 61 61 62 61 1 0 40 -39 85 -87z m3523 -46 c161 -80 415 -88 581 -17 25 11 48 20 50 20 11 0 2 -78 -16 -131 -25 -74 -58 -128 -110 -178 -43 -42 -134 -93 -194 -110 -34 -9 -43 -7 -68 10 -52 38 -171 100 -275 144 -152 65 -263 95 -355 95 -43 0 -78 3 -78 8 1 4 26 25 57 47 31 22 102 86 157 142 l101 101 60 -58 c33 -32 74 -65 90 -73z m-1493 -468 c-114 -74 -328 -101 -476 -60 -42 12 -103 34 -134 51 l-57 29 350 0 350 1 -33 -21z m739 -150 c209 -289 421 -535 540 -626 l50 -38 -38 -7 c-21 -5 -162 -11 -314 -14 l-276 -7 -6 -231 c-7 -301 -32 -420 -127 -591 -76 -137 -139 -204 -443 -471 l-292 -256 -3 325 -2 325 91 198 c85 185 225 489 306 664 19 41 114 246 210 455 186 402 192 415 198 415 2 0 49 -64 106 -141z m-1578 -58 c139 -95 309 -150 482 -158 188 -8 362 33 510 122 32 20 59 34 60 33 2 -3 -120 -269 -397 -868 -49 -107 -99 -216 -111 -242 -11 -27 -23 -48 -26 -48 -3 0 -34 53 -67 118 -34 64 -125 236 -201 382 -77 146 -175 333 -218 415 -43 83 -107 204 -142 269 -35 66 -63 122 -63 124 0 3 28 -22 63 -54 34 -33 84 -75 110 -93z m-417 -11 c31 -58 85 -161 121 -230 36 -69 85 -161 108 -205 23 -44 68 -129 100 -190 32 -60 74 -141 95 -180 20 -38 70 -133 110 -210 40 -77 85 -162 100 -190 15 -27 60 -111 99 -187 l71 -136 -2 -313 -3 -312 -260 227 c-143 125 -282 251 -309 279 -71 77 -161 219 -197 311 -56 145 -69 234 -69 489 l0 227 -177 0 c-178 0 -405 14 -436 26 -13 5 1 24 67 92 112 116 224 247 381 446 72 90 134 164 138 163 5 -2 33 -50 63 -107z" fill="#ef2a82"/>
<path d="M5610 5750 l0 -1010 428 2 427 3 3 1008 2 1007 -430 0 -430 0 0 -1010z m570 0 l0 -720 -145 0 -145 0 0 713 c0 393 3 717 7 720 3 4 69 7 145 7 l138 0 0 -720z" fill="#ef2a82"/>
<path d="M6182 3738 l3 -143 1148 -3 1147 -2 0 145 0 145 -1150 0 -1151 0 3 -142z" fill="#ef2a82"/>
<path d="M6187 3303 c-4 -3 -7 -69 -7 -145 l0 -138 1150 0 1150 0 0 145 0 145 -1143 0 c-629 0 -1147 -3 -1150 -7z" fill="#ef2a82"/>
<path d="M6182 2588 l3 -143 860 0 860 0 3 143 3 142 -866 0 -866 0 3 -142z" fill="#ef2a82"/>
<path d="M8192 2588 l3 -143 143 -3 142 -3 0 146 0 145 -145 0 -146 0 3 -142z" fill="#ef2a82"/>
</g>
</svg>