<svg width="96" height="91" viewBox="0 0 96 91" fill="none" xmlns="http://www.w3.org/2000/svg">
<path d="M77.12 15.1375C67.2 14.5375 57.6 12.4375 48 9.4375C38.72 12.4375 29.12 14.5375 18.88 15.1375C17.28 15.4375 16 16.6375 16 18.1375V51.4375C16 60.4375 21.44 68.8375 30.08 73.0375L46.4 80.8375C46.72 81.1375 47.36 81.1375 47.68 81.1375C48.32 81.1375 48.64 81.1375 48.96 80.8375L65.28 73.0375C73.92 68.8375 79.36 60.7375 79.36 51.4375V18.1375C80 16.6375 78.72 15.4375 77.12 15.1375ZM63.04 67.6375L48 74.8375V45.4375H22.4V21.1375C31.04 20.2375 39.68 18.4375 48 16.0375V45.4375H73.6V51.7375C73.6 58.3375 69.44 64.6375 63.04 67.6375Z" fill="#EF2A82"/>
</svg>
