<svg width="36" height="28" viewBox="0 0 36 28" fill="none" xmlns="http://www.w3.org/2000/svg">
<path d="M36 23.3332C36 24.1516 35.778 24.9104 35.4224 25.5779L24.0557 12.3892L35.2992 2.18786C35.7365 2.90766 36 3.75318 36 4.66687V23.3332ZM18 14.7839L33.6449 0.587995C33.0029 0.223518 32.28 0 31.5001 0H4.49997C3.71915 0 2.99597 0.223518 2.35657 0.587995L18 14.7839ZM22.3617 13.9251L18.7403 17.2131C18.5285 17.4045 18.2648 17.5 18 17.5C17.7352 17.5 17.4714 17.4045 17.2596 17.2131L13.6374 13.9249L2.12693 27.2822C2.81687 27.7311 3.62544 28 4.4999 28H31.5001C32.3744 28 33.1834 27.7311 33.8731 27.2822L22.3617 13.9251ZM0.70099 2.18778C0.263687 2.90758 0 3.7531 0 4.66687V23.3333C0 24.1517 0.220951 24.9105 0.577901 25.578L11.9432 12.387L0.70099 2.18778Z" fill="url(#paint0_linear_2902_1287)"/>
<defs>
<linearGradient id="paint0_linear_2902_1287" x1="18" y1="0" x2="18" y2="28" gradientUnits="userSpaceOnUse">
<stop stop-color="#EF2A82"/>
<stop offset="1" stop-color="#7B61FF"/>
</linearGradient>
</defs>
</svg>
