<svg xmlns="http://www.w3.org/2000/svg" version="1.0" width="225.000000pt" height="225.000000pt" viewBox="0 0 225.000000 225.000000" preserveAspectRatio="xMidYMid meet">

<g transform="translate(0.000000,225.000000) scale(0.100000,-0.100000)" fill="#ef2a82" stroke="none">
<path d="M377 2183 c-4 -3 -7 -53 -7 -110 l0 -103 -33 0 c-21 0 -41 -8 -51 -19 -25 -28 -31 -90 -13 -133 13 -32 20 -37 54 -40 l38 -3 3 -87 3 -88 -34 0 c-41 0 -66 -24 -74 -73 -11 -71 22 -127 77 -127 l30 0 0 -85 0 -85 -30 0 c-55 0 -88 -56 -77 -127 8 -49 33 -73 74 -73 l34 0 -3 -87 -3 -88 -38 -3 c-48 -4 -72 -44 -64 -109 6 -56 30 -83 73 -83 l33 0 3 -107 3 -108 407 -3 408 -2 2 -163 3 -162 96 -3 c87 -2 98 -5 119 -27 23 -25 26 -25 185 -25 159 0 162 0 185 25 20 22 32 25 114 27 l91 3 0 495 0 495 -172 3 -173 2 0 528 c0 397 -3 531 -12 540 -9 9 -162 12 -628 12 -339 0 -620 -3 -623 -7z m1203 -558 l0 -515 -192 -2 -193 -3 -3 -302 -2 -303 -385 0 -385 0 0 80 0 80 30 0 c40 0 65 39 65 103 0 41 -4 53 -28 73 -15 13 -37 24 -48 24 -17 0 -19 7 -19 85 0 79 1 85 21 85 34 0 57 18 69 56 23 69 -11 144 -65 144 -25 0 -25 1 -25 85 0 79 1 85 21 85 34 0 57 18 69 56 23 68 -9 144 -60 144 l-30 0 0 90 0 90 28 0 c45 0 67 32 66 96 0 63 -22 94 -66 94 l-28 0 0 78 c0 43 3 82 7 85 3 4 264 7 580 7 l573 0 0 -515z m-1120 250 l0 -45 -69 0 c-62 0 -70 2 -76 21 -4 11 -4 31 -1 45 6 23 11 24 76 24 l70 0 0 -45z m-2 -372 l3 -43 -70 0 c-77 0 -89 10 -75 65 6 25 8 26 73 23 l66 -3 3 -42z m0 -375 l-3 -43 -66 -3 c-65 -3 -67 -2 -73 23 -14 55 -2 65 75 65 l70 0 -3 -42z m1482 -518 l0 -450 -83 0 c-76 0 -86 -2 -107 -25 -23 -24 -27 -25 -160 -25 -133 0 -137 1 -160 25 -21 23 -31 25 -102 25 l-78 0 0 450 0 450 345 0 345 0 0 -450z m-1480 145 l0 -45 -69 0 c-62 0 -70 2 -76 21 -4 11 -4 31 -1 45 6 23 11 24 76 24 l70 0 0 -45z" fill="#ef2a82"/>
<path d="M933 2045 c-204 -44 -353 -231 -353 -440 0 -222 161 -410 385 -448 137 -23 290 29 390 134 211 221 151 581 -119 715 -66 32 -158 55 -216 53 -14 0 -53 -7 -87 -14z m275 -84 c83 -42 146 -106 185 -189 29 -61 32 -75 32 -167 0 -92 -3 -106 -32 -167 -140 -296 -542 -311 -711 -27 -83 139 -58 337 59 464 85 93 171 126 309 122 84 -3 102 -7 158 -36z" fill="#ef2a82"/>
<path d="M940 1931 c-244 -75 -327 -380 -152 -559 67 -69 129 -96 227 -100 101 -5 173 20 244 84 189 170 119 498 -122 569 -53 16 -155 19 -197 6z m179 -57 c65 -19 140 -86 173 -152 32 -67 32 -169 -1 -236 -48 -97 -132 -155 -237 -164 -157 -12 -290 101 -302 256 -5 83 9 139 51 194 79 103 191 139 316 102z" fill="#ef2a82"/>
<path d="M1010 1825 c0 -17 -7 -28 -22 -34 -44 -17 -73 -59 -73 -106 0 -58 23 -81 107 -105 57 -18 69 -25 74 -47 6 -21 1 -31 -20 -50 -44 -38 -88 -25 -112 33 -15 36 -30 40 -48 11 -16 -25 16 -81 58 -101 26 -12 36 -23 36 -40 0 -13 6 -26 14 -29 17 -7 36 11 36 35 0 10 13 24 29 33 42 21 61 53 61 102 0 55 -22 77 -97 99 -32 9 -64 21 -70 26 -18 14 -16 63 3 78 37 31 109 4 116 -44 2 -13 10 -21 23 -21 15 0 21 8 23 33 3 25 -3 39 -27 62 -16 17 -36 30 -45 30 -9 0 -16 11 -18 28 -2 19 -9 28 -25 30 -19 3 -23 -1 -23 -23z" fill="#ef2a82"/>
<path d="M624 1067 c-2 -7 -3 -120 -2 -252 l3 -240 185 0 185 0 3 63 c2 34 6 62 9 62 3 0 25 -18 49 -40 72 -67 106 -25 35 44 l-38 37 14 40 c18 52 3 112 -38 150 -26 24 -29 34 -29 88 l0 61 -185 0 c-141 0 -187 -3 -191 -13z m326 -67 c0 -25 -4 -30 -25 -30 -36 0 -78 -23 -109 -60 -21 -25 -26 -42 -26 -85 0 -43 5 -60 26 -85 31 -37 73 -60 109 -60 21 0 25 -5 25 -30 l0 -30 -140 0 -140 0 0 205 0 205 140 0 140 0 0 -30z m48 -116 c60 -69 -7 -172 -94 -144 -41 14 -64 44 -64 85 0 85 101 123 158 59z" fill="#ef2a82"/>
<path d="M1314 987 c-3 -8 -4 -43 -2 -78 l3 -64 275 0 275 0 0 75 0 75 -273 3 c-223 2 -273 0 -278 -11z m506 -67 l0 -30 -227 2 -228 3 -3 28 -3 27 230 0 231 0 0 -30z" fill="#ef2a82"/>
<path d="M1324 765 c-10 -25 9 -37 57 -33 36 2 44 7 44 23 0 17 -8 20 -48 23 -36 2 -49 -1 -53 -13z" fill="#ef2a82"/>
<path d="M1468 768 c-10 -27 4 -38 52 -38 49 0 70 16 47 39 -15 15 -94 14 -99 -1z" fill="#ef2a82"/>
<path d="M1614 765 c-10 -25 9 -37 57 -33 36 2 44 7 44 23 0 17 -8 20 -48 23 -36 2 -49 -1 -53 -13z" fill="#ef2a82"/>
<path d="M1754 766 c-10 -26 6 -36 57 -36 47 0 50 2 47 23 -3 19 -10 22 -51 25 -35 2 -49 -1 -53 -12z" fill="#ef2a82"/>
<path d="M1324 585 c-10 -25 9 -37 57 -33 36 2 44 7 44 23 0 17 -8 20 -48 23 -36 2 -49 -1 -53 -13z" fill="#ef2a82"/>
<path d="M1473 589 c-22 -22 -2 -39 47 -39 31 0 50 5 53 14 8 21 -13 36 -53 36 -20 0 -41 -5 -47 -11z" fill="#ef2a82"/>
<path d="M1617 594 c-4 -4 -7 -16 -7 -26 0 -17 7 -19 53 -16 44 3 52 6 52 23 0 17 -8 20 -45 23 -25 2 -49 0 -53 -4z" fill="#ef2a82"/>
<path d="M1756 585 c-10 -27 2 -35 55 -35 47 0 50 2 47 23 -3 19 -10 22 -49 25 -36 2 -48 -1 -53 -13z" fill="#ef2a82"/>
<path d="M1324 436 c-10 -26 6 -36 57 -36 47 0 50 2 47 23 -3 19 -10 22 -51 25 -35 2 -49 -1 -53 -12z" fill="#ef2a82"/>
<path d="M1470 435 c-19 -23 -2 -35 50 -35 49 0 70 16 47 39 -16 16 -82 14 -97 -4z" fill="#ef2a82"/>
<path d="M1617 443 c-4 -3 -7 -15 -7 -25 0 -15 8 -18 50 -18 37 0 52 4 57 16 3 9 0 20 -8 25 -16 10 -83 12 -92 2z" fill="#ef2a82"/>
<path d="M1761 436 c-20 -24 -4 -36 50 -36 47 0 50 2 47 23 -2 18 -10 23 -44 25 -27 2 -45 -2 -53 -12z" fill="#ef2a82"/>
<path d="M1333 294 c-18 -8 -16 -41 3 -48 22 -9 67 -7 82 3 8 5 12 17 10 27 -2 14 -13 19 -43 21 -22 1 -46 0 -52 -3z" fill="#ef2a82"/>
<path d="M1470 284 c-12 -14 -12 -18 5 -30 37 -28 100 -13 93 22 -5 26 -79 32 -98 8z" fill="#ef2a82"/>
<path d="M1617 293 c-4 -3 -7 -14 -7 -24 0 -35 84 -39 104 -6 8 14 8 20 -4 27 -17 11 -83 13 -93 3z" fill="#ef2a82"/>
<path d="M1760 285 c-18 -22 4 -45 44 -45 40 0 59 13 54 36 -4 25 -79 32 -98 9z" fill="#ef2a82"/>
</g>
</svg>