<svg width="47" height="50" viewBox="0 0 47 50" fill="none" xmlns="http://www.w3.org/2000/svg">
<g clip-path="url(#clip0_2849_4407)">
<path d="M23.5 49.4141C36.1745 49.4141 46.4492 38.4835 46.4492 25C46.4492 11.5165 36.1745 0.585938 23.5 0.585938C10.8255 0.585938 0.550781 11.5165 0.550781 25C0.550781 38.4835 10.8255 49.4141 23.5 49.4141Z" fill="url(#paint0_linear_2849_4407)"/>
<path d="M46.3942 26.6602C46.385 26.6504 46.3758 26.6406 46.3666 26.6309C43.2272 23.3008 40.0877 19.9609 36.9575 16.6211C36.6545 16.2988 36.2965 16.1426 35.8743 16.1426C35.2684 16.1523 34.6534 16.1426 34.0475 16.1426C30.55 16.1426 27.0618 16.1426 23.5643 16.1426C23.5643 16.1523 23.5643 16.1523 23.5643 16.1621C23.0502 16.1621 22.5362 16.1621 22.0221 16.1621C19.9842 16.1621 17.9372 16.1719 15.8993 16.1719C14.3754 16.1719 12.8424 16.1719 11.3186 16.1816C11.2635 16.1816 11.1993 16.1816 11.1442 16.1816C10.7954 16.2012 10.5016 16.3379 10.2538 16.582C9.94165 16.8945 9.80396 17.2852 9.80396 17.7344C9.81313 19.668 9.81313 21.6113 9.81313 23.5449C9.81313 26.4551 9.82231 29.3555 9.81313 32.2656C9.81313 32.8125 9.97837 33.252 10.3456 33.6426C14.1 37.627 17.8545 41.6309 21.609 45.6152C22.7473 46.8262 23.8948 48.0469 25.0331 49.2676C25.0606 49.2969 25.0881 49.3262 25.1157 49.3457C36.5168 48.5059 45.6231 38.7988 46.3942 26.6602Z" fill="url(#paint1_linear_2849_4407)"/>
<path d="M37.2511 17.5977C37.2511 16.7676 36.6177 16.1035 35.8374 16.1035L11.1349 16.1426C10.7585 16.1426 10.4005 16.2988 10.1343 16.582C9.86807 16.8652 9.72119 17.2461 9.72119 17.6465L9.73955 32.4121C9.73955 32.8125 9.88643 33.1934 10.1526 33.4766C10.4188 33.7598 10.7769 33.916 11.1532 33.916L35.8558 33.877C36.636 33.877 37.2694 33.2031 37.2603 32.373L37.2511 17.5977ZM28.0622 27.0898L34.4605 32.373L12.521 32.4023L18.956 27.0898C19.2681 26.8359 19.3231 26.3672 19.0845 26.0352C18.8458 25.7031 18.4052 25.6445 18.0931 25.8984L11.1624 31.6211L11.144 18.3203L23.1052 27.1094C23.2245 27.1973 23.3622 27.2461 23.5091 27.2461C23.6468 27.2461 23.7937 27.1973 23.913 27.1094L35.8466 18.2813L35.8649 31.6211L28.9343 25.8984C28.6222 25.6445 28.1815 25.7031 27.9429 26.0352C27.695 26.3574 27.7593 26.8359 28.0622 27.0898ZM12.6862 17.6367L34.286 17.6074L23.4999 25.5762L12.6862 17.6367Z" fill="white"/>
</g>
<defs>
<linearGradient id="paint0_linear_2849_4407" x1="23.5" y1="0.585937" x2="23.5" y2="49.4141" gradientUnits="userSpaceOnUse">
<stop stop-color="#EF2A82"/>
<stop offset="1" stop-color="#7B61FF" stop-opacity="0"/>
</linearGradient>
<linearGradient id="paint1_linear_2849_4407" x1="28.0991" y1="16.1426" x2="28.0991" y2="49.3457" gradientUnits="userSpaceOnUse">
<stop stop-color="#EF2A82"/>
<stop offset="1" stop-color="#7B61FF" stop-opacity="0"/>
</linearGradient>
<clipPath id="clip0_2849_4407">
<rect width="47" height="50" fill="white"/>
</clipPath>
</defs>
</svg>
