<svg width="64" height="74" viewBox="0 0 64 74" fill="none" xmlns="http://www.w3.org/2000/svg">
<path d="M13.9358 16.4284C14.6544 16.4284 15.2375 16.9463 15.2375 17.5846C15.2375 18.223 14.6544 18.7409 13.9358 18.7409H11.8774V64.22H52.9896V18.7409H50.9286C50.2099 18.7409 49.6269 18.223 49.6269 17.5846C49.6269 16.9463 50.2099 16.4284 50.9286 16.4284H54.2587H54.2913C55.01 16.4284 55.593 16.9463 55.593 17.5846V65.3472V65.3786C55.593 66.0169 55.01 66.5349 54.2913 66.5349H10.6082H10.5756C9.85698 66.5349 9.27393 66.0169 9.27393 65.3786V17.6136V17.5846C9.27393 16.9463 9.85698 16.4284 10.5756 16.4284H13.9358Z" fill="#EF2A82"/>
<path d="M25.7079 4.48533C26.4238 4.48533 27.0041 5.0008 27.0041 5.63672C27.0041 6.27263 26.4238 6.78811 25.7079 6.78811H21.9655V16.4284H42.9012V6.78811L39.1588 6.78577C38.4427 6.78577 37.8626 6.2702 37.8626 5.63429C37.8626 4.99838 38.4429 4.4829 39.1588 4.4829L44.0698 4.48533L44.2029 4.48047C44.9215 4.48047 45.5046 4.99838 45.5046 5.63672V17.5557V17.5846C45.5046 18.223 44.9215 18.7409 44.2029 18.7409H20.6964H20.6638C19.9451 18.7409 19.3621 18.223 19.3621 17.5846V5.63672H19.3675C19.3675 5.0008 19.9479 4.48533 20.6638 4.48533H25.7079Z" fill="#EF2A82"/>
<path d="M30.7492 29.1953C30.0306 29.1953 29.4475 28.6774 29.4475 28.0391C29.4475 27.4007 30.0306 26.8828 30.7492 26.8828H47.5657C48.2843 26.8828 48.8674 27.4007 48.8674 28.0391C48.8674 28.6774 48.2843 29.1953 47.5657 29.1953H30.7492ZM30.7492 56.0782C30.0306 56.0782 29.4475 55.5603 29.4475 54.9219C29.4475 54.2837 30.0306 53.7657 30.7492 53.7657H47.5657C48.2843 53.7657 48.8674 54.2837 48.8674 54.9219C48.8674 55.5603 48.2843 56.0782 47.5657 56.0782H30.7492ZM30.7492 47.1172C30.0306 47.1172 29.4475 46.5993 29.4475 45.9609C29.4475 45.3226 30.0306 44.8047 30.7492 44.8047H47.5657C48.2843 44.8047 48.8674 45.3226 48.8674 45.9609C48.8674 46.5993 48.2843 47.1172 47.5657 47.1172H30.7492ZM30.7492 38.1563C30.0306 38.1563 29.4475 37.6384 29.4475 37C29.4475 36.3617 30.0306 35.8438 30.7492 35.8438H47.5657C48.2843 35.8438 48.8674 36.3641 48.8674 37C48.8674 37.6384 48.2843 38.1563 47.5657 38.1563H30.7492Z" fill="#EF2A82"/>
<path d="M17.7349 27.9837C17.3064 27.4754 17.423 26.7528 17.9952 26.3698C18.5674 25.9891 19.381 26.0927 19.8095 26.601L20.6637 27.6127L23.4082 24.3608C23.8366 23.8526 24.6529 23.7489 25.2251 24.1295C25.7972 24.5101 25.9139 25.2351 25.4855 25.7411L21.7159 30.2046L21.7024 30.2215C21.6291 30.3082 21.5451 30.3853 21.442 30.4528C20.8698 30.8333 20.0563 30.7298 19.6277 30.2215L17.7349 27.9837Z" fill="#EF2A82"/>
<path d="M17.7349 36.9446C17.3064 36.4363 17.423 35.7137 17.9952 35.3307C18.5674 34.95 19.381 35.0537 19.8095 35.5619L20.6637 36.5736L23.4082 33.3217C23.8366 32.8135 24.6529 32.7099 25.2251 33.0904C25.7972 33.471 25.9139 34.196 25.4855 34.7043L21.7159 39.1678L21.7024 39.1848C21.6291 39.2715 21.5451 39.3486 21.442 39.4161C20.8698 39.7966 20.0563 39.6931 19.6277 39.1848L17.7349 36.9446Z" fill="#EF2A82"/>
<path d="M17.7349 45.9054C17.3064 45.3972 17.423 44.6744 17.9952 44.2916C18.5674 43.9111 19.381 44.0146 19.8095 44.5229L20.6637 45.5346L23.4082 42.2826C23.8366 41.7744 24.6529 41.6708 25.2251 42.0512C25.7972 42.4318 25.9139 43.1569 25.4855 43.6651L21.7159 48.1287L21.7024 48.1456C21.6291 48.2323 21.5451 48.3094 21.442 48.3768C20.8698 48.7574 20.0563 48.6539 19.6277 48.1456L17.7349 45.9054Z" fill="#EF2A82"/>
<path d="M17.7349 54.8665C17.3064 54.3583 17.423 53.6355 17.9952 53.2527C18.5674 52.8722 19.381 52.9757 19.8095 53.484L20.6637 54.4957L23.4082 51.2437C23.8366 50.7355 24.6529 50.6318 25.2251 51.0123C25.7972 51.3929 25.9139 52.118 25.4855 52.6262L21.7159 57.0897L21.7024 57.1067C21.6291 57.1934 21.5451 57.2705 21.442 57.3379C20.8698 57.7185 20.0563 57.615 19.6277 57.1067L17.7349 54.8665Z" fill="#EF2A82"/>
<path d="M13.9384 8.96091C14.657 8.96091 15.2401 9.47881 15.2401 10.1172C15.2401 10.7555 14.657 11.2734 13.9384 11.2734H5.53155C4.97016 11.2734 4.45221 11.4806 4.07795 11.813C3.70369 12.1454 3.47049 12.6055 3.47049 13.1042V69.8567C3.47049 70.3603 3.70096 70.8202 4.07259 71.1477L4.07795 71.1527C4.44674 71.4826 4.96479 71.6875 5.53155 71.6875H59.3353C59.9048 71.6875 60.4201 71.4828 60.7888 71.1527L60.7943 71.1477C61.1658 70.8201 61.3964 70.3601 61.3964 69.8567V13.1042C61.3964 12.6007 61.166 12.1406 60.7943 11.813L60.7918 11.8106L60.789 11.813C60.4148 11.4806 59.8996 11.2734 59.3355 11.2734H50.9287C50.21 11.2734 49.627 10.7555 49.627 10.1172C49.627 9.47881 50.21 8.96091 50.9287 8.96091H59.3355C60.6182 8.96091 61.7873 9.42817 62.6304 10.1774L62.6278 10.1799C63.4738 10.9313 64 11.9696 64 13.1042V69.8567C64 70.9913 63.4766 72.0271 62.6304 72.7785L62.625 72.7835C61.7788 73.5351 60.6127 74 59.3355 74H5.53176C4.25446 74 3.08834 73.5351 2.24231 72.7835L2.23684 72.7785C1.3906 72.027 0.867188 70.9912 0.867188 69.8567V13.1042C0.867188 11.9648 1.39323 10.9266 2.23674 10.1774C3.08024 9.42827 4.24899 8.96091 5.53165 8.96091H13.9384Z" fill="#EF2A82"/>
<path d="M32.4336 0C33.4832 0 34.4403 0.382987 35.1318 0.994795L35.1373 0.999654C35.8261 1.61389 36.2573 2.46181 36.2573 3.39643C36.2573 4.32872 35.8259 5.17897 35.1373 5.79321L35.1347 5.79564L35.1373 5.79807C34.4484 6.41231 33.4913 6.79286 32.4336 6.79286C31.3759 6.79286 30.4187 6.40988 29.7298 5.79807C29.0383 5.18617 28.6099 4.33348 28.6099 3.39643C28.6099 2.46181 29.041 1.61389 29.7325 0.997225L29.7298 0.994795C30.4213 0.382987 31.3786 0 32.4336 0ZM33.3014 2.63046L33.2959 2.6256C33.0763 2.43284 32.7725 2.31241 32.4336 2.31241C32.0973 2.31241 31.7909 2.43527 31.5712 2.63036L31.5685 2.62793L31.5658 2.63036C31.3515 2.82069 31.2132 3.09529 31.2132 3.39391C31.2132 3.69253 31.3515 3.96479 31.5711 4.15998C31.7908 4.35507 32.0972 4.47793 32.4335 4.47793C32.7697 4.47793 33.0762 4.35507 33.2958 4.15998L33.2985 4.16231C33.5154 3.96722 33.6511 3.69505 33.6511 3.39391C33.6539 3.09782 33.5183 2.82555 33.3014 2.63046Z" fill="#EF2A82"/>
</svg>
