<svg width="64" height="72" viewBox="0 0 75 72" fill="none" xmlns="http://www.w3.org/2000/svg">
<g clip-path="url(#clip0_2851_4436)">
<path d="M27.2415 39.6093H11.4562C11.2956 39.6172 11.1349 39.5953 10.9839 39.5448C10.8329 39.4943 10.6948 39.4164 10.578 39.3157C10.4612 39.2151 10.3682 39.0938 10.3047 38.9593C10.2411 38.8249 10.2083 38.68 10.2083 38.5337C10.2083 38.3873 10.2411 38.2424 10.3047 38.108C10.3682 37.9735 10.4612 37.8522 10.578 37.7516C10.6948 37.6509 10.8329 37.573 10.9839 37.5225C11.1349 37.472 11.2956 37.4501 11.4562 37.458H27.2415C27.5439 37.4729 27.8286 37.5928 28.0368 37.7928C28.2451 37.9929 28.3612 38.2581 28.3612 38.5337C28.3612 38.8093 28.2451 39.0744 28.0368 39.2745C27.8286 39.4746 27.5439 39.5944 27.2415 39.6093ZM28.4253 47.1469C28.4253 46.8611 28.3006 46.5872 28.0786 46.3851C27.8566 46.1831 27.5555 46.0696 27.2415 46.0696H11.4562C11.1422 46.0696 10.8411 46.1831 10.6191 46.3851C10.3971 46.5872 10.2724 46.8611 10.2724 47.1469C10.2724 47.4326 10.3971 47.7066 10.6191 47.9086C10.8411 48.1106 11.1422 48.2241 11.4562 48.2241H27.2415C27.5555 48.2241 27.8566 48.1106 28.0786 47.9086C28.3006 47.7066 28.4253 47.4326 28.4253 47.1469ZM11.4562 54.6844C11.1538 54.6993 10.8691 54.8191 10.6609 55.0192C10.4526 55.2193 10.3365 55.4844 10.3365 55.76C10.3365 56.0356 10.4526 56.3008 10.6609 56.5009C10.8691 56.701 11.1538 56.8208 11.4562 56.8357H19.3679C19.6704 56.8208 19.955 56.701 20.1633 56.5009C20.3716 56.3008 20.4877 56.0356 20.4877 55.76C20.4877 55.4844 20.3716 55.2193 20.1633 55.0192C19.955 54.8191 19.6704 54.6993 19.3679 54.6844H11.4562ZM29.6265 71.5001H7.49167C5.50532 71.4984 3.60085 70.7796 2.19629 69.5015C0.791727 68.2234 0.00183836 66.4904 0 64.6828L0 14.4347C0.00275524 12.6274 0.792939 10.8949 2.1973 9.61696C3.60167 8.33902 5.5056 7.61997 7.49167 7.61746H14.7403C17.2051 -1.80603 27.6928 -1.93871 30.2201 7.61746H43.8113C44.1253 7.61746 44.4264 7.73096 44.6484 7.93298C44.8704 8.135 44.9951 8.409 44.9951 8.6947C44.9951 8.98041 44.8704 9.25441 44.6484 9.45643C44.4264 9.65845 44.1253 9.77194 43.8113 9.77194H16.7052C16.3017 12.4832 16.8292 15.2417 18.2154 17.6696C19.4943 16.6994 21.1246 16.1978 22.788 16.2628C24.4515 16.3277 26.0287 16.9544 27.2116 18.0207C28.3945 19.0869 29.0982 20.5161 29.1853 22.0291C29.2724 23.5422 28.7367 25.0304 27.6827 26.2033C26.6288 27.3762 25.1323 28.1496 23.4854 28.3723C21.8385 28.5951 20.1595 28.2513 18.7762 27.4081C17.3929 26.5648 16.4046 25.2827 16.0043 23.812C15.6041 22.3413 15.8206 20.7877 16.6115 19.4545C14.6632 16.5522 13.8577 13.1333 14.3272 9.75931H7.49167C6.81786 9.76014 6.15082 9.88173 5.52865 10.1171C4.90648 10.3526 4.34135 10.6972 3.86554 11.1313C3.38973 11.5655 3.01255 12.0807 2.75553 12.6475C2.49852 13.2143 2.3667 13.8216 2.36762 14.4347V64.6828C2.36854 65.9195 2.90857 67.1053 3.86922 67.9801C4.82987 68.8549 6.13265 69.3471 7.49167 69.3488H29.6369C29.9393 69.3637 30.2239 69.4835 30.4322 69.6836C30.6405 69.8837 30.7566 70.1488 30.7566 70.4244C30.7566 70.7 30.6405 70.9652 30.4322 71.1652C30.2239 71.3653 29.9393 71.4852 29.6369 71.5001H29.6265ZM19.6457 19.3818C20.0113 19.7372 20.4533 20.0206 20.9441 20.2143C21.435 20.408 21.9643 20.5079 22.4993 20.5079C23.0343 20.5079 23.5637 20.408 24.0545 20.2143C24.5454 20.0206 24.9873 19.7372 25.3529 19.3818C24.5696 18.7405 23.5531 18.3856 22.4993 18.3856C21.4455 18.3856 20.429 18.7405 19.6457 19.3818ZM26.6374 21.2236C25.5019 22.1583 24.0253 22.676 22.4941 22.676C20.9629 22.676 19.4863 22.1583 18.3508 21.2236C18.1681 21.8069 18.1367 22.4209 18.259 23.0171C18.3813 23.6134 18.654 24.1757 19.0556 24.6598C19.4572 25.1439 19.9767 25.5366 20.5734 25.8071C21.1701 26.0775 21.8275 26.2182 22.4941 26.2182C23.1607 26.2182 23.8181 26.0775 24.4148 25.8071C25.0115 25.5366 25.531 25.1439 25.9326 24.6598C26.3342 24.1757 26.6069 23.6134 26.7292 23.0171C26.8515 22.4209 26.8201 21.8069 26.6374 21.2236ZM17.2121 7.61746H27.7935C26.7971 4.60687 24.735 2.59139 22.4958 2.59139C20.2567 2.59139 18.1945 4.67005 17.2121 7.61746ZM74.9861 27.3869V58.9428C74.9859 59.2284 74.861 59.5023 74.639 59.7041L62.0163 71.1905C61.794 71.392 61.4934 71.5055 61.1796 71.5064H39.0483C37.0608 71.5047 35.1553 70.7851 33.7505 69.5056C32.3457 68.2261 31.5567 66.4915 31.5567 64.6828V27.3869C31.5532 26.5593 31.7299 25.7393 32.0767 24.9742C32.4235 24.2091 32.9335 23.5142 33.5771 22.9295L48.3903 9.44972C49.6874 8.27239 51.4446 7.61122 53.2766 7.61122C55.1086 7.61122 56.8658 8.27239 58.1628 9.44972L72.9761 22.9295C73.6183 23.5146 74.1266 24.2099 74.4717 24.975C74.8167 25.7401 74.9915 26.5599 74.9861 27.3869ZM70.9591 60.0169H62.3773V67.8261L70.9591 60.0169ZM72.6324 27.3869C72.6345 26.8435 72.518 26.3051 72.2898 25.803C72.0615 25.3008 71.7261 24.8449 71.3028 24.4616L56.4895 10.9819C55.6364 10.2081 54.4811 9.77362 53.2766 9.77362C52.0721 9.77362 50.9167 10.2081 50.0636 10.9819L35.2504 24.4616C34.8271 24.8449 34.4917 25.3008 34.2634 25.803C34.0352 26.3051 33.9187 26.8435 33.9208 27.3869V64.6828C33.9226 65.9198 34.4634 67.1056 35.4246 67.9803C36.3858 68.855 37.689 69.3471 39.0483 69.3488H60.0132V58.9428C60.0132 58.6576 60.1374 58.3841 60.3587 58.1822C60.58 57.9803 60.8802 57.8664 61.1935 57.8656H72.6497L72.6324 27.3869ZM53.2783 28.4325C51.5004 28.4325 49.7953 27.7899 48.5382 26.6459C47.281 25.5019 46.5747 23.9503 46.5747 22.3324C46.5747 20.7145 47.281 19.1629 48.5382 18.0189C49.7953 16.8749 51.5004 16.2322 53.2783 16.2322C55.0562 16.2322 56.7613 16.8749 58.0185 18.0189C59.2757 19.1629 59.982 20.7145 59.982 22.3324C59.982 23.9503 59.2757 25.5019 58.0185 26.6459C56.7613 27.7899 55.0562 28.4325 53.2783 28.4325ZM53.2783 18.3867C52.1274 18.3867 51.0237 18.8028 50.2099 19.5433C49.396 20.2839 48.9389 21.2883 48.9389 22.3356C48.9389 23.3828 49.396 24.3872 50.2099 25.1278C51.0237 25.8683 52.1274 26.2844 53.2783 26.2844C54.4292 26.2844 55.533 25.8683 56.3468 25.1278C57.1606 24.3872 57.6178 23.3828 57.6178 22.3356C57.6178 21.2883 57.1606 20.2839 56.3468 19.5433C55.533 18.8028 54.4292 18.3867 53.2783 18.3867ZM53.2783 46.0696C46.8629 46.0696 48.2515 39.1449 53.2783 39.2176C54.1116 39.197 54.9334 39.3975 55.6435 39.7946C56.3537 40.1918 56.9214 40.7684 57.2776 41.4542C57.3994 41.7171 57.6308 41.9252 57.9211 42.033C58.2114 42.1408 58.5368 42.1394 58.8259 42.0292C61.3498 40.5097 56.4201 37.1579 54.4621 37.1579C54.4378 36.2733 54.7642 34.5832 53.2783 34.5864C51.7925 34.5896 52.1153 36.2797 52.0945 37.1642C50.5176 37.3454 49.0805 38.079 48.0885 39.209C47.0964 40.339 46.6277 41.7765 46.7818 43.2161C46.936 44.6556 47.7008 45.9837 48.9139 46.9183C50.1269 47.8528 51.6926 48.3201 53.2783 48.2209C56.8193 48.2209 57.5623 50.0848 57.5623 51.6454C57.4917 52.6133 57.0037 53.5166 56.2046 54.1586C55.4054 54.8006 54.3599 55.1292 53.2957 55.0729C52.4625 55.0931 51.6409 54.8925 50.9309 54.4954C50.2208 54.0983 49.6529 53.5219 49.2964 52.8363C49.2365 52.7059 49.1488 52.5875 49.0385 52.488C48.9282 52.3884 48.7973 52.3097 48.6535 52.2563C48.5096 52.2029 48.3556 52.1758 48.2002 52.1767C48.0449 52.1776 47.8912 52.2064 47.7481 52.2614C45.2277 53.7809 50.14 57.1169 52.0945 57.1263C52.1153 58.014 51.789 59.7073 53.2783 59.7041C54.7676 59.701 54.4378 58.0109 54.4621 57.1295C56.0631 56.9732 57.5314 56.2479 58.5475 55.1114C59.5637 53.9749 60.0454 52.5192 59.888 51.061C59.7306 49.6029 58.9466 48.2603 57.7068 47.3256C56.467 46.3908 54.8716 45.9394 53.2679 46.0696H53.2783Z" fill="#EF2A82"/>
</g>
<defs>
<clipPath id="clip0_2851_4436">
<rect width="75" height="71" fill="white" transform="translate(0 0.5)"/>
</clipPath>
</defs>
</svg>
